<?xml version="1.0" encoding="UTF-8"?>
<svg id="Layer_2" xmlns="http://www.w3.org/2000/svg" viewBox="0 0 505.902 61.512">
  <g id="Layer_1-2" data-name="Layer_1">
    <g>
      <path d="M0,.416h33.633v5.479H6.241v15.464h22.815v5.271H6.241v23.37H0V.416Z"/>
      <path d="M59.635,50v-4.924h-.139c-2.566,3.468-5.617,5.756-10.818,5.756-7.351,0-12.067-4.438-12.067-11.859V14.147h5.617v24.688c0,4.646,2.982,7.35,8.044,7.35,5.686,0,9.362-4.299,9.362-9.986V14.147h5.617v35.853h-5.617Z"/>
      <path d="M73.084.416h5.617v49.584h-5.617V.416Z"/>
      <path d="M86.743.416h5.617v49.584h-5.617V.416Z"/>
      <path d="M111.427.416h5.617v49.584h-5.617V.416Z"/>
      <path d="M124.88.416h5.617v6.935h-5.617V.416ZM124.88,14.147h5.617v35.853h-5.617V14.147Z"/>
      <path d="M135.834,38.35h5.756c.763,6.241,4.924,7.975,10.264,7.975,5.894,0,8.321-2.566,8.321-5.895,0-4.022-2.774-5.062-9.362-6.449-7.074-1.456-13.384-2.913-13.384-10.749,0-5.964,4.577-9.847,12.899-9.847,8.877,0,13.246,4.23,14.078,11.234h-5.756c-.555-4.716-3.121-6.796-8.46-6.796-5.132,0-7.212,2.288-7.212,5.131,0,3.884,3.467,4.647,9.639,5.894,7.212,1.457,13.246,3.051,13.246,11.304,0,7.212-5.894,10.887-14.147,10.887-9.847,0-15.325-4.646-15.881-12.69Z"/>
      <path d="M168.286,14.147h5.201V2.844h5.617v11.303h6.934v4.578h-6.934v23.3c0,2.497,1.318,3.329,3.606,3.329,1.109,0,2.358-.278,2.982-.486h.208v4.854c-1.318.278-2.843.485-4.507.485-4.577,0-7.906-1.872-7.906-6.934v-24.549h-5.201v-4.578Z"/>
      <path d="M200.875,32.109c0-10.403,6.657-18.863,17.337-18.863,10.749,0,17.268,8.46,17.268,18.863s-6.519,18.862-17.268,18.862c-10.679,0-17.337-8.46-17.337-18.862ZM229.723,32.109c0-7.906-3.884-14.216-11.512-14.216s-11.581,6.31-11.581,14.216,3.953,14.147,11.581,14.147,11.512-6.241,11.512-14.147Z"/>
      <path d="M238.111,14.147h4.925v-5.756c0-6.172,3.537-8.391,9.5-8.391,1.179,0,2.081.07,2.843.139v4.784c-.971-.069-1.247-.069-1.803-.069-3.606,0-4.924.901-4.924,3.815v5.478h6.657v4.578h-6.657v31.275h-5.617v-31.275h-4.925v-4.578Z"/>
      <path d="M271.81,14.147h5.617v5.063h.139c2.704-3.676,6.31-5.895,11.512-5.895,9.084,0,15.395,6.935,15.395,18.863,0,11.512-5.894,18.862-15.603,18.862-4.854,0-8.322-1.456-11.303-5.271h-.139v15.742h-5.617V14.147ZM298.716,32.247c0-8.044-3.397-14.147-10.194-14.147-7.836,0-11.443,6.38-11.443,14.147s3.122,14.078,11.373,14.078c6.866,0,10.263-5.964,10.263-14.078Z"/>
      <path d="M315.702,20.111h.139c2.149-3.468,5.894-6.381,10.679-6.381,1.04,0,1.594.139,2.288.416v5.409h-.209c-.832-.277-1.387-.346-2.496-.346-5.548,0-10.403,4.16-10.403,10.887v19.903h-5.617V14.147h5.617v5.964Z"/>
      <path d="M330.471,32.109c0-10.403,6.657-18.863,17.337-18.863,10.749,0,17.268,8.46,17.268,18.863s-6.519,18.862-17.268,18.862c-10.679,0-17.337-8.46-17.337-18.862ZM359.319,32.109c0-7.906-3.884-14.216-11.512-14.216s-11.581,6.31-11.581,14.216,3.953,14.147,11.581,14.147,11.512-6.241,11.512-14.147Z"/>
      <path d="M364.932,59.916v-4.577h.138c.693.138,1.318.208,1.941.208,2.428,0,3.676-1.04,3.676-3.467V14.147h5.617v38.21c0,6.657-3.675,7.837-8.252,7.837-1.248,0-2.219-.138-3.121-.278ZM370.688.416h5.617v6.935h-5.617V.416Z"/>
      <path d="M381.92,32.109c0-10.403,6.796-18.863,16.99-18.863,10.75,0,16.506,8.322,16.506,20.181h-27.74c.416,7.281,4.369,12.829,11.581,12.829,5.201,0,8.669-2.497,9.916-7.351h5.479c-1.665,7.697-7.282,12.066-15.395,12.066-10.957,0-17.337-8.46-17.337-18.862ZM387.814,29.196h21.568c-.347-7.143-4.022-11.512-10.472-11.512-6.657,0-10.263,4.993-11.096,11.512Z"/>
      <path d="M418.878,32.109c0-10.403,6.657-18.863,17.337-18.863,8.46,0,14.078,4.854,15.326,12.482h-5.687c-.832-4.854-4.231-7.836-9.64-7.836-7.628,0-11.581,6.31-11.581,14.216s3.953,14.147,11.581,14.147c5.825,0,9.293-3.329,9.778-8.877h5.548c-.763,8.599-6.381,13.592-15.326,13.592-10.679,0-17.337-8.46-17.337-18.862Z"/>
      <path d="M454.588,14.147h5.201V2.844h5.617v11.303h6.934v4.578h-6.934v23.3c0,2.497,1.318,3.329,3.606,3.329,1.109,0,2.358-.278,2.982-.486h.208v4.854c-1.318.278-2.843.485-4.507.485-4.577,0-7.906-1.872-7.906-6.934v-24.549h-5.201v-4.578Z"/>
      <path d="M475.875,38.35h5.756c.762,6.241,4.924,7.975,10.264,7.975,5.894,0,8.321-2.566,8.321-5.895,0-4.022-2.774-5.062-9.362-6.449-7.074-1.456-13.384-2.913-13.384-10.749,0-5.964,4.576-9.847,12.899-9.847,8.877,0,13.245,4.23,14.077,11.234h-5.756c-.554-4.716-3.121-6.796-8.459-6.796-5.132,0-7.212,2.288-7.212,5.131,0,3.884,3.466,4.647,9.639,5.894,7.212,1.457,13.245,3.051,13.245,11.304,0,7.212-5.894,10.887-14.147,10.887-9.847,0-15.325-4.646-15.88-12.69Z"/>
    </g>
  </g>
</svg>