<?xml version="1.0" encoding="UTF-8"?>
<svg id="Layer_1" xmlns="http://www.w3.org/2000/svg" xmlns:xlink="http://www.w3.org/1999/xlink" version="1.1" viewBox="0 0 400 400">
  <!-- Generator: Adobe Illustrator 29.0.1, SVG Export Plug-In . SVG Version: 2.1.0 Build 192)  -->
  <defs>
    <style>
      .st0 {
        fill: #bcfb0f;
      }

      .st1 {
        isolation: isolate;
      }

      .st2 {
        display: none;
      }
    </style>
  </defs>
  <g id="Layer_2" class="st2">
    <image class="st1" width="1667" height="1667" transform="scale(.2)" xlink:href="../images/puppet-theater/puppet-theater-green.png"/>
    <image class="st1" width="1667" height="1667" transform="scale(.2)" xlink:href="../images/puppet-theater/puppet-theater-square.png"/>
  </g>
  <path class="st0" d="M398.5,208.8c-6.9-4.2-17.1-8.3-24.8-12.2-2.7-1.3-5.4-2.6-7.8-4.5h-.1v.3c-4.9-4-8.9-9.6-14.4-13-4-2.6-8.4-3.7-12.8-5.5-4-1.5-7.7-3.7-11.7-5-3.5-1.1-7.1-1.4-10.7-1.4s-4.2-.2-5.6-1.5c-2.1-1.9-2.4-6.1-.9-9.7,2.1-6,8.6-8.3,12-13.5,4.6-7.2.5-16.8-5.6-21.9-5.3-4.6-12.4-6.2-18.9-8.1-2.9-.8-5.9-1.7-8.8-2.4-10.7-2.8-23.5-2.7-34.6-.1-5.4,1.2-10.8,1.8-16,4.1-6.3,2.8-11.9,9.3-12.3,16-.6,6.3,4.2,10.8,6.2,16.3,4.1,11.6-4,13.2-13.8,15.7-3.6.9-7.5,2.4-11.1,2.5-6.7-.1-3.2-7.5-1.2-10.9s4.7-6.4,5.8-10.1c2.5-7.4-.7-15.8-6.1-21.2-5.1-5.2-12.3-6.5-19.2-8.3-4-.9-7.9-2.1-12-2.7-13.4-2.2-27,1.2-39.5,6-4.5,1.6-9.1,2.7-13.6,4.3-4.7,1.7-9,4.8-12.7,8.4-8,8-14.5,22.2-5.9,31.9,4.2,4.8,11,6.2,13.4,12.1,1.9,4.3,2.3,10.4-2.3,9.2-16.4-2.7-72.9-15.1-91.4-17.2-1.3,0-2.8.6-4.8,1.5-3.6,1.6-8.9,4-12.5,6.9-3,2.2-5.3,5.4-4.9,9.3,2.2,14.5,6.2,32.4,9,47.4,2,11.8,3.8,12.5,14.3,16.1,10.1,3.7,20.3,7.5,30.8,11.4,17.5,6.5,39.2,14.4,55.8,20.6,5.6,1.8,10.9,4.8,16.4,4.4,17.8-6.6,83.6-42.6,105.9-53.5,1.3.9,2.8,1.4,4.5,1.4,3.5,0,6.5-2.3,7.6-5.4,2.9-.9,5.8-1.7,10-1.8,5.4.1,12.5,1.4,17,3.2,6.4,2.2,4.9,8,6.8,13,0,.2.1.4.2.5,0,.3-.1.7-.1,1,0,3.4,3.3,6.2,7.4,6.2s4.6-1,5.9-2.5c.5,0,1.1,0,1.6.2,3.6.6,6.6,2.9,9.3,5.4,3.3,3,7.6,7,10.8,10.1,1.2,1.2,2.5,2.5,3.3,3.9,1.7,2.8-.3,5.5-1.6,8.1-.5.9-.8,2-.9,3-.4.7-.6,1.5-.6,2.4,0,3.4,3.3,6.2,7.4,6.2s4.3-.9,5.7-2.2c3.6-.3,7.4-.8,10.7-.2,8.8,1.4,17.2,4,26,5.8,4.4,1,9.1,2.1,12.3,2.4,1.3,0,2.5.2,3.6-.3,1.6-.7,2.2-2.3,2.7-4.1.4-1.4.7-3,1.2-4.9,3.8-15.4,8.4-34,12.2-49.5,1.9-7.8,3.6-14.4,4.5-18.2.6-2.3.9-4-1-5.4ZM277.2,162.1c-2.7,3.1-10.8,1.9-13.3-.7h-.2c-1.3-1.7-.7-4.3,0-7.3,1-3.8.9-8.7,2.9-12,2.6-3.9,8.6-2.8,10,1.7.9,2.9.7,6,1,9,.2,3.8,1,7.4-.4,9.3Z"/>
</svg>